<svg xmlns="http://www.w3.org/2000/svg" viewBox="0 0 36 36" width="36" height="36">
  <rect width="36" height="36" rx="2" ry="2" stroke-width="0" fill="#bae6fd"/>
  <rect width="10" height="16" x="2" y="2" rx="2" ry="2" stroke-width="0" fill="#0369a1" />
  <rect width="10" height="12" x="13" y="6" rx="2" ry="2" stroke-width="0" fill="#0369a1" />
  <rect width="10" height="8" x="24" y="10" rx="2" ry="2" stroke-width="0" fill="#0369a1" />
  <path stroke-width="0" fill="#0c4a6e" d="M10.8 22.567h2.512v-.624H10.8v.624Zm.128 5.92H6.624c-.085.299-.155.523-.208.672h4.448c.043-.235.064-.421.064-.56v-.112Zm.032-4.624H9.12v1.216h1.84v-1.216Zm2.08 0v1.216h1.824v-1.216H13.04ZM5.2 26.935a33.798 33.798 0 0 0-2.96-2.448l1.184-1.424c.917.651 1.904 1.456 2.96 2.416L5.2 26.935Zm11.952-6.624v1.632h-1.92v.624h1.616v3.792h-3.792v.56h3.984v1.568h-3.984v.112c0 .192.016.379.048.56h4.144v1.616h-3.232c.683.629 1.808 1.136 3.376 1.52l-.752 1.664a7.448 7.448 0 0 1-2.616-1.096c-.816-.539-1.475-1.165-1.976-1.88-.587.715-1.339 1.344-2.256 1.888a8.604 8.604 0 0 1-2.912 1.088l-.784-1.616c1.717-.363 2.976-.885 3.776-1.568H6.256v-1.12c-.555 1.6-1.227 3.003-2.016 4.208l-1.696-1.072c.949-1.493 1.733-3.173 2.352-5.04l1.584.624v-1.456h4.448v-.56H7.2v-3.792h1.68v-.624H6.528l-.992 1.2a33.067 33.067 0 0 0-2.656-2.176l1.184-1.424a37.122 37.122 0 0 1 2.384 1.888v-1.12H8.88v-1.072h1.92v1.072h2.512v-1.072h1.92v1.072h1.92ZM25.2 31.559v-2.016h-6.512v-1.824H25.2v-1.136h1.392a25.705 25.705 0 0 0 1.76-1.28h-7.264v-.64h-1.92v-3.904h5.744v-1.568h2.176v1.568h5.744v3.904H30.96v.64a21.367 21.367 0 0 1-2.928 2.416h5.28v1.824h-5.92v2.352c0 .501-.016.867-.048 1.096a.869.869 0 0 1-.344.576 1.342 1.342 0 0 1-.72.272c-.283.027-.739.04-1.368.04-.309 0-1.184-.027-2.624-.08l-.096-1.776a91.49 91.49 0 0 0 2.4.08c.299 0 .475-.024.528-.072.053-.048.08-.205.08-.472Zm5.568-9.088h-9.536v1.088h9.536v-1.088Z" />
</svg>
